<svg width="420" height="520" xmlns="http://www.w3.org/2000/svg">
<line x1="60" y1="60" x2="360" y2="60" stroke="black" stroke-width="3"/>
<line x1="60" y1="460" x2="360" y2="460" stroke="black" stroke-width="3"/>
<line x1="60" y1="60" x2="60" y2="460" stroke="black" stroke-width="3"/>
<line x1="360" y1="60" x2="360" y2="130" stroke="black" stroke-width="3"/>
<line x1="360" y1="190" x2="360" y2="460" stroke="black" stroke-width="3"/>
<rect x="210" y="60" width="150" height="200" fill="#a67c00" stroke="white" stroke-width="2"/>
<text x="285.0" y="160.0" text-anchor="middle" dominant-baseline="middle" fill="white" font-size="14" pointer-events="none">Living / Hall</text>
<rect x="210" y="260" width="150" height="200" fill="#1e5631" stroke="white" stroke-width="2"/>
<text x="285.0" y="360.0" text-anchor="middle" dominant-baseline="middle" fill="white" font-size="14" pointer-events="none">Kitchen</text>
<rect x="60" y="260" width="150" height="200" fill="#2f3640" stroke="white" stroke-width="2"/>
<text x="135.0" y="360.0" text-anchor="middle" dominant-baseline="middle" fill="white" font-size="14" pointer-events="none">Master Bedroom</text>
<rect x="60" y="60" width="70" height="100" fill="#3a3f44" stroke="white" stroke-width="2"/>
<text x="95.0" y="110.0" text-anchor="middle" dominant-baseline="middle" fill="white" font-size="11" pointer-events="none">Bedroom 2</text>
<rect x="60" y="160" width="70" height="100" fill="#3a3f44" stroke="white" stroke-width="2"/>
<text x="95.0" y="210.0" text-anchor="middle" dominant-baseline="middle" fill="white" font-size="11" pointer-events="none">Bedroom 3</text>
<rect x="130" y="60" width="80" height="200" fill="#555555" stroke="white" stroke-width="2"/>
<text x="170.0" y="160.0" text-anchor="middle" dominant-baseline="middle" fill="white" font-size="14" pointer-events="none">Bathroom</text>
<rect x="152" y="268" width="50" height="50" fill="#777777" stroke="white" stroke-width="2"/>
<text x="177.0" y="293.0" text-anchor="middle" dominant-baseline="middle" fill="white" font-size="11" pointer-events="none">Bathroom</text>
<rect x="99" y="68" width="23" height="23" fill="#777777" stroke="white" stroke-width="2"/>
<text x="110.5" y="79.5" text-anchor="middle" dominant-baseline="middle" fill="white" font-size="11" pointer-events="none">Bathroom</text>
<rect x="235" y="30" width="100" height="25" fill="#aa0000" stroke="white" stroke-width="2"/>
<text x="285.0" y="42.5" text-anchor="middle" dominant-baseline="middle" fill="white" font-size="11" pointer-events="none">Balcony</text>
</svg>